HIERARCHY
ROOT Hips
{
    OFFSET 0.000 93.594 0.000
    CHANNELS 6 Xposition Yposition Zposition Yrotation Xrotation Zrotation
    JOINT RightHip
    {
        OFFSET -9.500 -1.594 0.000
        CHANNELS 3 Yrotation Xrotation Zrotation
        JOINT RightKnee
        {
            OFFSET 0.000 -42.000 0.000
            CHANNELS 3 Yrotation Xrotation Zrotation
            JOINT RightAnkle
            {
                OFFSET 0.000 -42.000 0.000
                CHANNELS 3 Yrotation Xrotation Zrotation
                End Site
                {
                    OFFSET 0.000 -8.000 17.500
                }
            }
        }
    }
    JOINT LeftHip
    {
        OFFSET 9.500 -1.594 0.000
        CHANNELS 3 Yrotation Xrotation Zrotation
        JOINT LeftKnee
        {
            OFFSET 0.000 -42.000 0.000
            CHANNELS 3 Yrotation Xrotation Zrotation
            JOINT LeftAnkle
            {
                OFFSET 0.000 -42.000 0.000
                CHANNELS 3 Yrotation Xrotation Zrotation
                End Site
                {
                    OFFSET 0.000 -8.000 17.500
                }
            }
        }
    }
    JOINT Chest
    {
        OFFSET 0.000 14.348 0.000
        CHANNELS 3 Yrotation Xrotation Zrotation
        JOINT Chest2
        {
            OFFSET 0.000 9.746 0.000
            CHANNELS 3 Yrotation Xrotation Zrotation
            JOINT Chest3
            {
                OFFSET 0.000 10.149 0.000
                CHANNELS 3 Yrotation Xrotation Zrotation
                JOINT Chest4
                {
                    OFFSET 0.000 9.746 0.000
                    CHANNELS 3 Yrotation Xrotation Zrotation
                    JOINT Neck
                    {
                        OFFSET 0.000 10.417 0.000
                        CHANNELS 3 Yrotation Xrotation Zrotation
                        JOINT Head
                        {
                            OFFSET 0.000 9.000 0.000
                            CHANNELS 3 Yrotation Xrotation Zrotation
                            End Site
                            {
                                OFFSET 0.000 16.000 0.000
                            }
                        }
                    }
                    JOINT RightCollar
                    {
                        OFFSET -3.200 6.945 0.000
                        CHANNELS 3 Yrotation Xrotation Zrotation
                        JOINT RightShoulder
                        {
                            OFFSET -12.800 0.000 0.000
                            CHANNELS 3 Yrotation Xrotation Zrotation
                            JOINT RightElbow
                            {
OFFSET -0 -27 0.000
						CHANNELS 3 Xrotation Yrotation Zrotation
                                JOINT RightWrist
                                {
OFFSET -0 -26 0.000
						CHANNELS 3 Xrotation Yrotation Zrotation
                                    JOINT RightFinger0
                                    {
OFFSET -0.196 -2.56 3.210
						CHANNELS 3 Xrotation Yrotation Zrotation
                                        JOINT RightFinger01
                                        {
OFFSET -0 -3.788 0.000
						CHANNELS 3 Xrotation Yrotation Zrotation
                                            JOINT RightFinger0Nub
                                            {
OFFSET -0 -2.631 0.000
						CHANNELS 3 Xrotation Yrotation Zrotation
                                                End Site
                                                {
OFFSET 0 -2.256 0
                                                }
                                            }
                                        }
                                    }
                                    JOINT RightFinger1
                                    {
OFFSET -0.523 -3.316 2.035
						CHANNELS 3 Xrotation Yrotation Zrotation
                                        JOINT RightFinger11
                                        {
OFFSET 0.094 -5.366 1.028
						CHANNELS 3 Xrotation Yrotation Zrotation
                                            JOINT RightFinger12
                                            {
OFFSET -0 -3.723 0.000
						CHANNELS 3 Xrotation Yrotation Zrotation
                                                JOINT RightFinger1Nub
                                                {
OFFSET -0 -2.111 0.000
						CHANNELS 3 Xrotation Yrotation Zrotation
                                                    End Site
                                                    {
OFFSET 0 -1.857 0
                                                    }
                                                }
                                            }
                                        }
                                    }
                                    JOINT RightFinger2
                                    {
OFFSET -0.532 -3.479 0.778
						CHANNELS 3 Xrotation Yrotation Zrotation
                                        JOINT RightFinger21
                                        {
OFFSET 0.086 -5.322 0.323
						CHANNELS 3 Xrotation Yrotation Zrotation
                                            JOINT RightFinger22
                                            {
OFFSET -0 -4.062 0.000
						CHANNELS 3 Xrotation Yrotation Zrotation
                                                JOINT RightFinger2Nub
                                                {
OFFSET -0 -2.547 0.000
						CHANNELS 3 Xrotation Yrotation Zrotation
                                                    End Site
                                                    {
OFFSET 0 -2.031 0
                                                    }
                                                }
                                            }
                                        }
                                    }
                                    JOINT RightFinger3
                                    {
OFFSET -0.553 -3.461 -0.133
						CHANNELS 3 Xrotation Yrotation Zrotation
                                        JOINT RightFinger31
                                        {
OFFSET 0.023 -4.767 -0.493
						CHANNELS 3 Xrotation Yrotation Zrotation
                                            JOINT RightFinger32
                                            {
OFFSET -0 -3.541 0.000
						CHANNELS 3 Xrotation Yrotation Zrotation
                                                JOINT RightFinger3Nub
                                                {
OFFSET -0 -2.456 0.000
						CHANNELS 3 Xrotation Yrotation Zrotation
                                                    End Site
                                                    {
OFFSET 0 -1.91 0
                                                    }
                                                }
                                            }
                                        }
                                    }
                                    JOINT RightFinger4
                                    {
OFFSET -0.483 -3.251 -1.236
						CHANNELS 3 Xrotation Yrotation Zrotation
                                        JOINT RightFinger41
                                        {
OFFSET 0.023 -4.259 -1.122
						CHANNELS 3 Xrotation Yrotation Zrotation
                                            JOINT RightFinger42
                                            {
OFFSET -0 -2.835 0.000
						CHANNELS 3 Xrotation Yrotation Zrotation
                                                JOINT RightFinger4Nub
                                                {
OFFSET -0 -1.792 0.000
						CHANNELS 3 Xrotation Yrotation Zrotation
                                                    End Site
                                                    {
OFFSET 0 -1.692 0
                                                    }
                                                }
                                            }
                                        }
                                    }
                                }
                            }
                        }
                    }
                    JOINT LeftCollar
                    {
                        OFFSET 3.200 6.945 0.000
                        CHANNELS 3 Yrotation Xrotation Zrotation
                        JOINT LeftShoulder
                        {
                            OFFSET 12.800 0.000 0.000
                            CHANNELS 3 Yrotation Xrotation Zrotation
                            JOINT LeftElbow
                            {
OFFSET -0 -27 0.000
						CHANNELS 3 Xrotation Yrotation Zrotation
                                JOINT LeftWrist
                                {
OFFSET -0 -26 0.000
						CHANNELS 3 Xrotation Yrotation Zrotation
                                    JOINT LeftFinger0
                                    {
OFFSET -0.196 -2.56 3.210
						CHANNELS 3 Xrotation Yrotation Zrotation
                                        JOINT LeftFinger01
                                        {
OFFSET -0 -3.788 0.000
						CHANNELS 3 Xrotation Yrotation Zrotation
                                            JOINT LeftFinger0Nub
                                            {
OFFSET -0 -2.631 0.000
						CHANNELS 3 Xrotation Yrotation Zrotation
                                                End Site
                                                {
OFFSET 0 -2.256 0
                                                }
                                            }
                                        }
                                    }
                                    JOINT LeftFinger1
                                    {
OFFSET -0.523 -3.316 2.035
						CHANNELS 3 Xrotation Yrotation Zrotation
                                        JOINT LeftFinger11
                                        {
OFFSET 0.094 -5.366 1.028
						CHANNELS 3 Xrotation Yrotation Zrotation
                                            JOINT LeftFinger12
                                            {
OFFSET -0 -3.723 0.000
						CHANNELS 3 Xrotation Yrotation Zrotation
                                                JOINT LeftFinger1Nub
                                                {
OFFSET -0 -2.111 0.000
						CHANNELS 3 Xrotation Yrotation Zrotation
                                                    End Site
                                                    {
OFFSET 0 -1.857 0
                                                    }
                                                }
                                            }
                                        }
                                    }
                                    JOINT LeftFinger2
                                    {
OFFSET -0.532 -3.479 0.778
						CHANNELS 3 Xrotation Yrotation Zrotation
                                        JOINT LeftFinger21
                                        {
OFFSET 0.086 -5.322 0.323
						CHANNELS 3 Xrotation Yrotation Zrotation
                                            JOINT LeftFinger22
                                            {
OFFSET -0 -4.062 0.000
						CHANNELS 3 Xrotation Yrotation Zrotation
                                                JOINT LeftFinger2Nub
                                                {
OFFSET -0 -2.547 0.000
						CHANNELS 3 Xrotation Yrotation Zrotation
                                                    End Site
                                                    {
OFFSET 0 -2.031 0
                                                    }
                                                }
                                            }
                                        }
                                    }
                                    JOINT LeftFinger3
                                    {
OFFSET -0.553 -3.461 -0.133
						CHANNELS 3 Xrotation Yrotation Zrotation
                                        JOINT LeftFinger31
                                        {
OFFSET 0.023 -4.767 -0.493
						CHANNELS 3 Xrotation Yrotation Zrotation
                                            JOINT LeftFinger32
                                            {
OFFSET -0 -3.541 0.000
						CHANNELS 3 Xrotation Yrotation Zrotation
                                                JOINT LeftFinger3Nub
                                                {
OFFSET -0 -2.456 0.000
						CHANNELS 3 Xrotation Yrotation Zrotation
                                                    End Site
                                                    {
OFFSET 0 -1.91 0
                                                    }
                                                }
                                            }
                                        }
                                    }
                                    JOINT LeftFinger4
                                    {
OFFSET -0.483 -3.251 -1.236
						CHANNELS 3 Xrotation Yrotation Zrotation
                                        JOINT LeftFinger41
                                        {
OFFSET 0.023 -4.259 -1.122
						CHANNELS 3 Xrotation Yrotation Zrotation
                                            JOINT LeftFinger42
                                            {
OFFSET -0 -2.835 0.000
						CHANNELS 3 Xrotation Yrotation Zrotation
                                                JOINT LeftFinger4Nub
                                                {
OFFSET -0 -1.792 0.000
						CHANNELS 3 Xrotation Yrotation Zrotation
                                                    End Site
                                                    {
OFFSET 0 -1.692 0
                                                    }
                                                }
                                            }
                                        }
                                    }
                                }
                            }
                        }
                    }
                }
            }
        }
    }
}
MOTION

Frames: 7
Frame Time: 0.017
-83.34 93.11 77.64 149.54 2.77 -0.54 -5.31 -14.95 -5.99 -0.00 23.64 0.00 -19.57 -9.99 7.65 -17.42 -18.11 5.86 -0.00 25.94 -0.00 17.42 -11.05 -6.83 -5.55 1.44 -1.89 -1.39 0.36 -0.46 -2.32 0.57 -0.77 0.00 -0.00 0.00 0.00 -0.00 -0.00 -0.00 0.00 0.00 -9.65 5.51 0.04 0.48 -3.04 -21.83 -17.84 18.43 13.18 -21.48 26.95 18.02 -45.57 -0 18.26 19.41 -0 -11.56 7.89 -0 0.00 0 -0 0.00 -15 -0 27.35 0 -0 9.52 0 -0 4.76 0 -0 0.00 0 -0 28.68 0 -0 28.68 0 -0 28.68 0 -0 0.00 15 -0 27.62 0 -0 27.62 0 -0 27.62 0 -0 0.00 25 -0 62.41 0 -0 62.41 0 -0 62.41 -2.63 -1.52 -4.96 1.86 -0.87 31.37 -20.28 -14.68 -15.78 -9.14 -6.09 8.34 -11.11 0 -42.55 -12.19 0 1.66 29.44 0 0.00 0.00 0 0.00 -15.00 0 -52.95 0.00 0 -3.05 0.00 0 -1.53 0.00 0 0.00 0.00 0 -43.26 0.00 0 -43.26 0.00 0 -43.26 0.00 0 0.00 15.00 0 -38.38 0.00 0 -38.38 0.00 0 -38.38 0.00 0 0.00 25.00 0 -35.03 0.00 0 -35.03 0.00 0 -35.03 
-83.52 93.10 78.01 149.53 2.84 -0.55 -5.48 -15.35 -5.92 -0.00 23.69 -0.00 -19.35 -9.72 7.48 -17.39 -18.45 5.98 0.00 25.91 0.00 17.30 -10.65 -6.58 -5.71 1.78 -1.88 -1.43 0.44 -0.45 -2.39 0.71 -0.76 0.00 -0.00 -0.00 -0.00 0.00 0.00 -0.00 0.00 -0.00 -9.64 5.46 0.06 0.86 -3.37 -21.93 -18.05 18.17 13.26 -22.12 26.27 18.07 -45.53 -0 18.24 19.47 -0 -11.58 7.96 -0 0.00 0 -0 0.00 -15 -0 27.35 0 -0 9.53 0 -0 4.76 0 -0 0.00 0 -0 29.23 0 -0 29.23 0 -0 29.23 0 -0 0.00 15 -0 27.91 0 -0 27.91 0 -0 27.91 0 -0 0.00 25 -0 61.93 0 -0 61.93 0 -0 61.93 -2.39 -2.17 -4.93 2.07 -0.36 31.54 -21.18 -14.73 -16.73 -8.32 -6.29 7.44 -11.22 0 -42.55 -12.39 0 1.66 29.29 0 0.00 0.00 0 0.00 -15.00 0 -52.71 0.00 0 -2.53 0.00 0 -1.27 0.00 0 0.00 0.00 0 -43.47 0.00 0 -43.47 0.00 0 -43.47 0.00 0 0.00 15.00 0 -39.50 0.00 0 -39.50 0.00 0 -39.50 0.00 0 0.00 25.00 0 -35.22 0.00 0 -35.22 0.00 0 -35.22 
-83.65 93.06 78.15 149.53 2.84 -0.55 -5.48 -15.56 -5.94 -0.00 23.85 -0.00 -19.33 -9.67 7.47 -17.38 -18.74 5.95 0.00 26.13 0.00 17.26 -10.29 -6.01 -3.61 -3.13 -0.57 -0.90 -0.79 -0.16 -1.49 -1.34 -0.26 0.00 0.00 -0.00 0.00 -0.00 0.00 -0.00 -0.00 0.00 -10.07 4.33 0.48 4.94 -6.08 -23.82 -22.1 6.94 10.42 -26.72 20.48 23.64 -46.99 -0 13.14 16.55 -0 -16.68 6.87 -0 0.00 0 -0 0.00 -15 -0 26.76 0 -0 23.76 0 -0 11.88 0 -0 0.00 0 -0 14.19 0 -0 14.19 0 -0 14.19 0 -0 0.00 15 -0 23.91 0 -0 23.91 0 -0 23.91 0 -0 0.00 25 -0 56.47 0 -0 56.47 0 -0 56.47 -3.05 -5.07 -7.22 -4.99 -4.31 30.71 -29.56 -14.91 -17.16 14.07 -2.22 0.34 -15.95 0 -37.25 -21.86 0 6.97 34.21 0 0.00 0.00 0 0.00 -15.00 0 -11.16 0.00 0 -38.78 0.00 0 -19.39 0.00 0 0.00 0.00 0 -22.69 0.00 0 -22.69 0.00 0 -22.69 0.00 0 0.00 15.00 0 -25.02 0.00 0 -25.02 0.00 0 -25.02 0.00 0 0.00 25.00 0 -19.17 0.00 0 -19.17 0.00 0 -19.17 
-83.73 93.06 78.25 149.53 2.84 -0.55 -5.48 -15.64 -5.95 0.00 23.84 0.00 -19.31 -9.59 7.46 -17.37 -18.80 5.95 -0.00 26.06 0.00 17.23 -10.13 -5.91 -3.69 -3.16 -0.67 -0.92 -0.80 -0.19 -1.52 -1.36 -0.30 0.00 0.00 0.00 0.00 0.00 -0.00 -0.00 -0.00 0.00 -10.04 4.48 0.47 4.75 -5.87 -23.5 -21.57 8.68 10.17 -26.52 21.12 22.68 -46.83 -0 13.46 16.88 -0 -16.37 6.89 -0 0.00 0 -0 0.00 -15 -0 24.07 0 -0 20.09 0 -0 10.05 0 -0 0.00 0 -0 14.95 0 -0 14.95 0 -0 14.95 0 -0 0.00 15 -0 24.73 0 -0 24.73 0 -0 24.73 0 -0 0.00 25 -0 57.21 0 -0 57.21 0 -0 57.21 -3.05 -4.89 -7.22 -4.90 -4.29 30.53 -28.08 -15.35 -16.41 12.61 -2.35 0.38 -15.48 0 -37.18 -20.91 0 7.03 34.11 0 0.00 0.00 0 0.00 -15.00 0 -11.95 0.00 0 -37.95 0.00 0 -18.97 0.00 0 0.00 0.00 0 -22.87 0.00 0 -22.87 0.00 0 -22.87 0.00 0 0.00 15.00 0 -25.61 0.00 0 -25.61 0.00 0 -25.61 0.00 0 0.00 25.00 0 -19.45 0.00 0 -19.45 0.00 0 -19.45 
-83.69 93.03 78.27 153.14 -0.41 -1.60 -4.66 -10.99 -5.13 -0.00 23.06 -0.00 -24.10 -8.89 7.53 -20.11 -16.15 6.07 -0.00 26.95 -0.00 16.34 -10.10 -5.80 -5.93 -1.13 -0.36 -1.48 -0.29 -0.10 -2.46 -0.50 -0.16 0.00 0.00 0.00 0.00 -0.00 0.00 -0.00 -0.00 -0.00 -9.96 4.67 0.46 4.62 -5.67 -23.13 -20.88 10.61 9.79 -27.61 19.65 21.96 -45.89 -0 14.35 18.77 -0 -15.47 6.72 -0 0.00 0 -0 0.00 -15 -0 22.65 0 -0 16.97 0 -0 8.48 0 -0 0.00 0 -0 23.60 0 -0 23.60 0 -0 23.60 0 -0 0.00 15 -0 25.95 0 -0 25.95 0 -0 25.95 0 -0 0.00 25 -0 57.16 0 -0 57.16 0 -0 57.16 -3.03 -4.69 -7.20 -4.88 -4.27 30.31 -26.34 -15.69 -15.46 -15.37 -11.04 3.44 -10.88 0 -38.38 -11.73 0 5.83 33.98 0 0.00 0.00 0 0.00 -15.00 0 -33.25 0.00 0 -5.18 0.00 0 -2.59 0.00 0 0.00 0.00 0 -29.58 0.00 0 -29.58 0.00 0 -29.58 0.00 0 0.00 15.00 0 -42.74 0.00 0 -42.74 0.00 0 -42.74 0.00 0 0.00 25.00 0 -30.08 0.00 0 -30.08 0.00 0 -30.08 
-83.68 93.04 78.29 152.89 -0.44 -1.61 -4.45 -10.94 -5.10 -0.00 22.92 -0.00 -24.05 -8.77 7.46 -20.00 -16.04 6.08 -0.00 26.87 -0.00 16.51 -10.06 -5.80 -5.87 -1.10 -0.47 -1.47 -0.28 -0.13 -2.44 -0.49 -0.21 0.00 0.00 -0.00 0.00 0.00 0.00 -0.00 -0.00 0.00 -9.86 4.87 0.46 4.68 -5.41 -22.74 -20.12 12.25 9.22 -28.76 18.28 21.26 -44.77 -0 15.26 21 -0 -14.56 6.7 -0 0.00 0 -0 0.00 -15 -0 22.48 0 -0 14.51 0 -0 7.25 0 -0 0.00 0 -0 25.01 0 -0 25.01 0 -0 25.01 0 -0 0.00 15 -0 26.84 0 -0 26.84 0 -0 26.84 0 -0 0.00 25 -0 57.22 0 -0 57.22 0 -0 57.22 -2.99 -4.52 -7.19 -4.98 -4.23 30.09 -24.53 -15.92 -14.38 -15.73 -10.71 4.11 -10.77 0 -38.84 -11.50 0 5.38 33.83 0 0.00 0.00 0 0.00 -15.00 0 -34.18 0.00 0 -4.93 0.00 0 -2.47 0.00 0 0.00 0.00 0 -30.03 0.00 0 -30.03 0.00 0 -30.03 0.00 0 0.00 15.00 0 -43.33 0.00 0 -43.33 0.00 0 -43.33 0.00 0 0.00 25.00 0 -30.34 0.00 0 -30.34 0.00 0 -30.34 
-83.69 93.05 78.33 152.66 -0.46 -1.63 -4.23 -10.92 -5.06 0.00 22.81 0.00 -24.05 -8.64 7.41 -16.89 -16.29 5.97 0.00 26.83 0.00 13.64 -10.20 -5.12 -5.81 -1.05 -0.54 -1.45 -0.27 -0.15 -2.41 -0.47 -0.24 0.00 0.00 0.00 -0.00 0.00 -0.00 -0.00 -0.00 -0.00 -9.79 5.05 0.46 4.83 -5.12 -22.32 -19.29 13.79 8.56 -28.57 18.99 20.00 -45.52 -0 14.94 19.5 -0 -14.88 10.25 -0 0.00 0 -0 0.00 -15 -0 22.87 0 -0 12.36 0 -0 6.18 0 -0 0.00 0 -0 24.94 0 -0 24.94 0 -0 24.94 0 -0 0.00 15 -0 27.65 0 -0 27.65 0 -0 27.65 0 -0 0.00 25 -0 58.53 0 -0 58.53 0 -0 58.53 -2.97 -4.40 -7.21 -5.05 -4.17 29.81 -22.74 -16.15 -13.23 -17.47 -10.84 3.96 -10.22 0 -39.18 -10.39 0 5.04 33.74 0 0.00 0.00 0 0.00 -15.00 0 -35.69 0.00 0 -6.51 0.00 0 -3.25 0.00 0 0.00 0.00 0 -30.67 0.00 0 -30.67 0.00 0 -30.67 0.00 0 0.00 15.00 0 -44.35 0.00 0 -44.35 0.00 0 -44.35 0.00 0 0.00 25.00 0 -30.87 0.00 0 -30.87 0.00 0 -30.87 
